<svg width="241" height="14" viewBox="0 0 241 14" fill="none" xmlns="http://www.w3.org/2000/svg">
<path d="M5.13897 5.83831C7.02586 5.83831 9.0026 5.77873 10.8895 5.71916C11.6982 5.71916 12.417 5.65958 13.2256 5.65958C16.64 5.54043 20.0544 5.42128 23.4687 5.30214C27.6019 5.18299 31.6453 5.00426 35.7784 4.88512C41.6188 4.64682 47.4592 4.46809 53.2995 4.22979C54.6473 4.17022 55.9951 4.17022 57.3429 4.11064C60.7572 3.9915 64.1716 3.87235 67.586 3.81277C71.0004 3.69362 74.4147 3.57447 77.8291 3.5149C79.1769 3.45532 80.5247 3.39575 81.8724 3.39575C87.2635 3.2766 92.7445 3.15745 98.1356 3.0383C101.46 2.97873 104.785 2.91916 108.199 2.80001C109.547 2.80001 110.805 2.74043 112.152 2.74043C117.364 2.68085 122.665 2.62128 127.877 2.56171C133.088 2.50213 138.21 2.44256 143.421 2.38298C144.769 2.38298 146.116 2.38298 147.554 2.38298C150.968 2.38298 154.293 2.38298 157.707 2.38298C163.009 2.38298 168.22 2.38298 173.521 2.32341C175.228 2.32341 176.936 2.32341 178.643 2.32341C182.237 2.32341 185.831 2.32341 189.425 2.32341C189.695 2.32341 190.054 2.32341 190.324 2.32341C182.237 2.38298 174.06 2.44256 165.974 2.56171C162.559 2.62128 159.235 2.62128 155.82 2.68085C154.383 2.68085 152.855 2.68085 151.418 2.74043C146.476 2.8 141.624 2.91915 136.682 2.97873C131.021 3.09788 125.361 3.15745 119.7 3.2766C118.712 3.2766 117.813 3.33617 116.825 3.33617C113.77 3.45532 110.805 3.5149 107.75 3.63405C101.64 3.81277 95.5299 3.99149 89.42 4.17022C88.5215 4.17022 87.6229 4.2298 86.7244 4.28937C83.7593 4.40852 80.7044 4.58724 77.7392 4.70639C72.3481 4.94469 67.0469 5.18298 61.6558 5.42128C60.2181 5.48086 58.6907 5.60001 57.253 5.65958C53.8387 5.83831 50.4243 6.01703 47.0099 6.25533C42.697 6.49363 38.2943 6.73193 33.9814 6.97022C27.9613 7.32767 21.8514 7.68512 15.8313 8.04256C14.3937 8.10214 12.9561 8.22129 11.4286 8.28086C8.82289 8.45959 6.21719 8.63831 3.61149 8.81703C3.34193 8.81703 3.07238 8.93618 3.07238 9.17448C3.07238 9.3532 3.34193 9.53193 3.61149 9.53193C4.59986 9.53193 5.49838 9.5915 6.48675 9.5915C6.39689 9.77022 6.30704 9.94895 6.30704 10.1277C6.30704 10.783 7.11571 11.3787 8.19393 11.3787C15.6516 11.0809 23.0195 10.7234 30.4772 10.4851C36.9465 10.3064 43.4158 10.0681 49.8852 9.88937C56.9835 9.65108 64.1716 9.41278 71.2699 9.23406C73.5162 9.17448 75.7625 9.1149 78.0088 8.99576C78.6378 8.99576 79.2667 8.93618 79.9855 8.93618C91.4866 8.75746 102.988 8.51916 114.489 8.34044C120.599 8.22129 126.798 8.10214 132.908 8.04256C135.155 7.98299 137.311 7.98299 139.557 7.92342C151.328 7.80427 163.098 7.68512 174.869 7.56597C179.901 7.5064 184.932 7.44682 189.964 7.38724C194.277 7.32767 198.59 7.32767 202.903 7.20852C206.497 7.14894 210.001 7.0298 213.595 6.97022C215.392 6.91065 217.189 6.91065 218.896 6.85107C222.94 6.67235 226.983 6.49362 231.026 6.3149C230.757 6.5532 230.757 6.91065 230.847 7.14895C230.937 7.44682 231.206 7.68512 231.655 7.80426C232.015 7.92341 232.554 8.04257 232.913 7.92342C233.812 7.68512 234.71 7.44682 235.519 7.20852C235.519 7.20852 235.519 7.20852 235.429 7.20852C235.519 7.20852 235.519 7.14895 235.609 7.14895C235.699 7.14895 235.789 7.08937 235.789 7.08937H235.699C236.148 6.97022 236.597 6.85108 237.136 6.67235C237.586 6.5532 238.125 6.37448 238.574 6.25533C239.113 6.0766 239.562 5.89788 240.101 5.71916C240.641 5.54043 241 5.06384 241 4.64682C241 4.40852 240.91 4.2298 240.73 3.9915C240.551 3.7532 240.101 3.45533 239.652 3.39575C239.203 3.33618 238.754 3.2766 238.304 3.2766C238.215 3.2766 238.125 3.2766 238.035 3.2766C237.765 3.2766 237.406 3.2766 237.136 3.33617C236.418 3.39575 235.789 3.45533 235.07 3.45533C234.531 3.45533 233.992 3.5149 233.363 3.5149C231.835 3.57447 230.397 3.63405 228.87 3.7532C228.511 3.7532 228.061 3.81277 227.702 3.81277C227.882 3.69362 227.971 3.57447 227.971 3.45533C228.061 3.33618 228.061 3.21703 228.061 3.09788C228.061 3.0383 228.061 2.91915 228.151 2.85958C228.151 2.74043 228.151 2.62128 228.061 2.56171C228.061 2.56171 228.151 2.56171 228.151 2.50213C228.421 2.38298 228.69 2.26383 228.87 2.02554C229.05 1.84681 229.14 1.60851 229.14 1.37022C229.14 1.13192 229.05 0.953195 228.87 0.714897C228.78 0.655323 228.69 0.536173 228.6 0.476598C228.331 0.297875 228.061 0.2383 227.792 0.178725C227.253 0.0595764 226.624 0 225.995 0C225.456 0 225.006 0 224.467 0C223.748 0 223.03 0 222.311 0C221.322 0 220.244 0 219.256 0C216.56 0 213.865 0 211.169 0C208.653 0 206.048 0 203.532 0C201.196 0 198.949 0 196.613 0C187.358 0 178.194 0.0595773 168.939 0.119152C162.02 0.178726 155.102 0.238299 148.183 0.238299C145.128 0.238299 141.983 0.297872 138.928 0.357446C132.01 0.476595 125.091 0.53617 118.173 0.655319C116.196 0.655319 114.219 0.714897 112.242 0.714897C111.074 0.714897 109.996 0.774471 108.828 0.774471C101.999 0.953195 95.1705 1.13192 88.3418 1.31064C86.2752 1.37022 84.2086 1.42979 82.0521 1.48936C80.8841 1.48936 79.716 1.54894 78.5479 1.60852C71.7192 1.84681 64.9803 2.08511 58.1515 2.32341C54.6473 2.44256 51.1431 2.5617 47.6389 2.74043C41.6188 2.97873 35.5987 3.21703 29.6685 3.5149C24.4571 3.7532 19.2457 3.93192 14.0343 4.11064C13.2256 4.17022 12.417 4.17022 11.5184 4.22979C10.1707 4.28937 8.82289 4.28937 7.47512 4.34894C6.30704 4.40852 5.13897 4.40852 3.88104 4.40852C3.79119 4.22979 3.43178 4.05107 3.16223 4.05107C2.35356 4.11065 1.63475 4.17022 0.826082 4.22979C0.466674 4.22979 0.107266 4.34894 0.0174146 4.64682C-0.0724372 4.94469 0.197118 5.24256 0.556525 5.30214C0.915932 5.36171 1.18549 5.42129 1.5449 5.48086C1.9043 5.54044 2.17386 5.54043 2.53327 5.54043C3.43178 5.77873 4.24045 5.77873 5.13897 5.83831ZM215.392 3.87235C216.47 3.87235 217.639 3.87235 218.717 3.87235C218.807 4.05107 218.986 4.17022 219.166 4.28937C218.717 4.28937 218.267 4.34894 217.908 4.34894C217.099 4.34894 216.291 4.40852 215.482 4.40852C211.888 4.46809 208.384 4.58724 204.79 4.64682C203.172 4.70639 201.555 4.76596 199.938 4.76596C197.422 4.76596 194.816 4.82554 192.3 4.82554C186.46 4.88511 180.709 4.94469 174.869 5.00426C163.548 5.12341 152.316 5.24256 140.995 5.36171C132.908 5.42128 124.822 5.60001 116.735 5.77873C104.605 6.01703 92.3851 6.19575 80.2551 6.43405C77.8291 6.49363 75.4031 6.5532 72.9771 6.67235C66.0585 6.91065 59.1399 7.08937 52.2213 7.32767C45.4824 7.56597 38.6537 7.74469 31.9148 7.98299C31.2858 7.98299 30.6569 8.04256 30.0279 8.04256C31.825 7.92341 33.7118 7.86384 35.5089 7.74469C41.8884 7.44682 48.2678 7.08937 54.6473 6.7915C56.8936 6.67235 59.1399 6.5532 61.2964 6.43405C62.4644 6.37448 63.6325 6.3149 64.7107 6.3149C71.3598 6.0766 78.0088 5.77873 84.6578 5.54043C85.9158 5.48086 87.2635 5.42128 88.5215 5.36171C90.4083 5.30213 92.2952 5.24256 94.0923 5.24256C100.921 5.06384 107.75 4.88511 114.578 4.70639C116.106 4.64682 117.633 4.64682 119.071 4.58724C119.43 4.58724 119.88 4.58724 120.239 4.58724C121.317 4.58724 122.396 4.58724 123.384 4.52766C130.213 4.40852 137.131 4.34894 143.96 4.22979C147.105 4.17022 150.25 4.11064 153.394 4.11064C163.548 4.05107 173.791 3.99149 183.944 3.93192C194.636 3.93192 205.059 3.93192 215.392 3.87235Z" fill="#26A4FF"/>
<path d="M18.7061 14C19.0038 14 19.2452 13.84 19.2452 13.6426C19.2452 13.4452 19.0038 13.2852 18.7061 13.2852C18.4084 13.2852 18.167 13.4452 18.167 13.6426C18.167 13.84 18.4084 14 18.7061 14Z" fill="#26A4FF"/>
</svg>
